<?xml version="1.0" standalone="no"?>
<!DOCTYPE svg PUBLIC "-//W3C//DTD SVG 20010904//EN"
 "http://www.w3.org/TR/2001/REC-SVG-20010904/DTD/svg10.dtd">
<svg version="1.0" xmlns="http://www.w3.org/2000/svg"
 width="150.000000pt" height="150.000000pt" viewBox="0 0 150.000000 150.000000"
 preserveAspectRatio="xMidYMid meet">
<metadata>
Created by potrace 1.11, written by Peter Selinger 2001-2013
</metadata>
<g transform="translate(0.000000,150.000000) scale(0.100000,-0.100000)"
fill="#000000" stroke="none">
<path d="M655 1494 c-11 -2 -44 -9 -73 -15 -264 -53 -492 -279 -563 -560 -18
-70 -18 -268 0 -338 71 -280 282 -491 562 -562 70 -18 268 -18 338 0 280 71
491 282 562 562 18 70 18 268 0 338 -70 276 -270 480 -546 558 -50 14 -243 26
-280 17z m225 -284 c0 -5 18 -10 40 -10 22 0 40 -4 40 -10 0 -5 9 -10 20 -10
11 0 20 -4 20 -10 0 -5 8 -10 18 -10 10 0 24 -9 32 -20 8 -11 20 -20 28 -20
17 0 62 -45 62 -62 0 -8 9 -20 20 -28 26 -19 28 -70 2 -70 -10 0 -24 -9 -32
-20 -8 -11 -22 -20 -32 -20 -10 0 -18 -4 -18 -10 0 -5 -9 -10 -19 -10 -11 0
-21 -6 -23 -12 -3 -7 -31 14 -66 50 -43 44 -68 62 -86 62 -15 0 -26 5 -26 10
0 6 -83 10 -230 10 -200 0 -230 2 -230 15 0 19 64 85 82 85 8 0 20 9 28 20 8
11 22 20 32 20 10 0 18 5 18 10 0 6 9 10 20 10 11 0 20 5 20 10 0 6 18 10 40
10 22 0 40 5 40 10 0 6 40 10 100 10 60 0 100 -4 100 -10z m-280 -258 c0 -4
-9 -14 -20 -22 -11 -8 -20 -20 -20 -28 0 -37 -24 -42 -194 -42 -104 0 -166 4
-166 10 0 6 5 10 10 10 6 0 10 11 10 25 0 51 11 54 203 55 97 0 177 -4 177 -8z
m-80 -192 l0 -60 -200 0 -200 0 0 60 0 60 200 0 200 0 0 -60z m26 -114 c8 -8
14 -21 14 -28 0 -8 9 -20 20 -28 11 -8 20 -22 20 -32 0 -17 -14 -18 -176 -18
-190 0 -204 4 -204 53 0 14 -5 27 -12 29 -9 3 -8 9 2 21 13 14 39 16 168 17
120 0 157 -3 168 -14z m524 -46 c8 -11 22 -20 32 -20 10 0 18 -4 18 -10 0 -5
7 -10 16 -10 8 0 22 -6 30 -14 16 -17 19 -46 4 -46 -5 0 -10 -7 -10 -15 0 -20
-85 -105 -105 -105 -8 0 -15 -4 -15 -10 0 -5 -9 -10 -20 -10 -11 0 -20 -4 -20
-10 0 -5 -9 -10 -20 -10 -11 0 -20 -4 -20 -10 0 -5 -13 -10 -30 -10 -16 0 -30
-4 -30 -10 0 -6 -47 -10 -120 -10 -73 0 -120 4 -120 10 0 6 -18 10 -40 10 -22
0 -40 5 -40 10 0 6 -8 10 -18 10 -10 0 -24 9 -32 20 -8 11 -20 20 -27 20 -19
0 -103 86 -103 105 0 13 31 15 240 15 153 0 240 4 240 10 0 6 9 10 20 10 11 0
20 5 20 10 0 6 7 10 15 10 9 0 27 11 40 25 14 13 25 31 25 40 0 23 52 19 70
-5z"/>
</g>
</svg>
